<?xml version="1.0" encoding="utf-8"?>
<!-- Generator: Adobe Illustrator 27.5.0, SVG Export Plug-In . SVG Version: 6.00 Build 0)  -->
<svg version="1.1" xmlns="http://www.w3.org/2000/svg" xmlns:xlink="http://www.w3.org/1999/xlink" x="0px" y="0px"
	 viewBox="0 0 500 500" style="enable-background:new 0 0 500 500;" xml:space="preserve">
<g id="BACKGROUND">
	<circle style="fill:#6D9147;" cx="251.804" cy="229.562" r="209.306"/>
</g>
<g id="OBJECTS">
	<g>
		<path style="opacity:0.2;fill:#211915;" d="M454.831,280.264L328.272,153.705L176.537,305.44l126.716,126.716
			C377.648,413.352,436.175,354.718,454.831,280.264z"/>
		<g>
			<g id="XMLID_1_">
				<g>
					<path style="fill:#CFD1CD;" d="M355.807,222.804c0.144,2.234,0.225,4.488,0.225,6.759c0,25.119-8.935,48.193-23.791,66.209
						c0.375-1.303,0.694-2.618,0.938-3.983c1.3-7.283,1.541-13.798,0.717-19.377c1.993-2.827,3.735-5.957,5.023-9.11
						c1.605-3.948,3.433-8.661,4.82-13.693c1.524-5.547,2.41-11.169,2.727-17.364c2.398-1.095,4.512-3.501,6.095-5.31
						c0.25-0.287,0.484-0.557,0.703-0.798C354.224,225.067,355.067,223.96,355.807,222.804z"/>
					<path style="fill:#211915;" d="M328.039,153.33c20.36,20.364,31.575,47.435,31.575,76.232
						c0,28.797-11.215,55.871-31.575,76.231c-20.364,20.364-47.436,31.576-76.232,31.576c-28.797,0-55.871-11.212-76.232-31.576
						c-20.364-20.36-31.579-47.435-31.579-76.231c0-28.797,11.215-55.868,31.579-76.232c20.361-20.361,47.435-31.575,76.232-31.575
						C280.603,121.755,307.675,132.969,328.039,153.33z M356.031,229.563c0-2.27-0.081-4.524-0.225-6.759
						c-0.739,1.156-1.583,2.264-2.544,3.332c-0.219,0.241-0.453,0.511-0.703,0.798c-1.583,1.808-3.697,4.215-6.095,5.31
						c-0.316,6.195-1.202,11.817-2.727,17.364c-1.388,5.032-3.215,9.745-4.82,13.693c-1.287,3.153-3.029,6.283-5.023,9.11
						c0.824,5.579,0.583,12.094-0.717,19.377c-0.244,1.365-0.563,2.681-0.938,3.983
						C347.097,277.756,356.031,254.682,356.031,229.563z M341.54,249.001c1.629-5.928,2.508-11.954,2.727-18.726
						c-1.824-7.996-6.763-15.898-10.964-20.814c-2.632-3.078-6.449-6.768-9.841-9.521c-7.403,1.635-15.006,3.345-22.402,5.407
						c-1.86,0.521-3.766,1.189-5.607,1.834c-1.696,0.596-3.427,1.202-5.179,1.716c-2.713,19.162-6.01,25.491-11.436,35.904
						c-0.82,1.577-1.667,3.202-2.573,4.984c1.476,1.645,2.893,3.543,4.209,5.309c0.703,0.941,1.368,1.834,1.977,2.596
						c6.01,7.527,11.183,16.045,15.149,24.896c1.863-0.147,3.303-0.58,5.02-1.095c1.049-0.315,2.238-0.674,3.645-0.993
						c8.143-1.856,17.335-3.961,25.035-8.381c2.195-2.935,4.127-6.29,5.505-9.678C338.387,258.555,340.185,253.92,341.54,249.001z
						 M327.971,159.62c0.645,0.319,1.279,0.645,1.905,0.974c-12.935-14.622-29.895-25.599-49.136-31.169
						c2.219,1.678,4.258,3.723,5.968,5.981c0.013,0,0.029,0.003,0.042,0.006c0.026-0.003,0.049-0.003,0.075-0.003v0.013
						c0.57,0.072,1.176,0.104,1.808,0.134c0.964,0.042,1.964,0.088,2.948,0.303c3.016,0.665,5.967,1.883,9.289,3.834l0.785,0.459
						c5.218,3.062,10.612,6.228,14.866,10.531c2.156,2.182,3.983,4.603,5.449,7.202C324.113,158.083,325.902,158.604,327.971,159.62
						z M323.091,197.687c2.176-5.847,3.114-11.338,2.785-16.329c-0.186-2.804-0.844-5.674-1.482-8.452
						c-0.335-1.456-0.681-2.961-0.954-4.443c-1.127-6.072-4.078-11.664-8.537-16.175c-4.046-4.091-9.309-7.183-14.4-10.169
						l-0.785-0.459c-3.11-1.828-5.85-2.964-8.625-3.573c-0.791-0.173-1.651-0.212-2.564-0.254c-0.635-0.029-1.286-0.059-1.932-0.137
						c-4.042,0.056-7.774,1.157-11.719,2.323l-0.58,0.172c-1.046,0.306-2.007,0.587-2.899,0.844
						c-7.762,2.257-10.162,2.958-18.442,8.202c0.033,2.186,0.134,4.388,0.238,6.547c0.12,2.609,0.251,5.306,0.251,7.938v0.244
						c0,5.271,0.003,10.638,0.296,15.974c15.55,7.179,23.019,13.4,35.56,26.866c1.817-0.518,3.625-1.15,5.397-1.772
						c1.877-0.658,3.818-1.339,5.749-1.879C307.941,201.065,315.619,199.338,323.091,197.687z M293.16,288.636
						c1.063-2.28,1.609-3.473,1.648-6.675c-3.792-8.116-8.603-15.911-14.14-22.846c-0.632-0.792-1.307-1.697-2.022-2.658
						c-1.241-1.661-2.573-3.449-3.926-4.98c-10.097,2.297-17.699,3.404-25.641,3.404c-6.185,0-12.579-0.671-20.52-1.971
						c-0.84,1.237-1.642,2.452-2.378,3.668c-0.792,1.299-1.85,3.065-3.065,5.097c-4.215,7.039-10.518,17.566-13.85,22.332
						c2.7,10.794,12.788,24.357,20.82,30.996c6.081,1.449,12.954,2.159,20.97,2.169c0.049,0,0.101,0,0.149,0
						c7.163,0,14.642-0.648,22.791-1.974c3.066-2.355,4.648-4.414,6.635-7.003c0.821-1.072,1.668-2.176,2.717-3.434
						c3.684-4.42,6.54-8.352,8.508-13.176C292.346,290.395,292.779,289.459,293.16,288.636z M289.606,326.692
						c-7.318-2.254-12.97-6.572-15.53-9.194c-8.159,1.313-15.667,1.954-22.869,1.954c-0.052,0-0.101,0-0.153,0
						c-8.247-0.01-15.331-0.753-21.618-2.261c-5.107,4.645-6.42,5.703-14.081,8.241c-0.994,0.328-1.873,0.56-2.694,0.72
						c12.091,4.918,25.306,7.635,39.146,7.635C265.132,333.787,277.881,331.27,289.606,326.692z M251.475,180.225
						c-0.31-5.439-0.31-10.902-0.31-16.26v-0.244c0-2.577-0.127-5.248-0.251-7.831c-0.107-2.315-0.218-4.684-0.244-7.039
						c-1.586-1.153-3.296-2.15-4.934-3.059c-4.557-2.531-9.287-4.215-15.338-5.466c-5.485-1.133-10.811-1.831-16.231-2.137
						c-3.101,1.052-5.915,2.274-8.814,4.088c-7.723,4.831-13.28,9.189-18.025,14.126c-2.619,2.723-5.065,5.909-7.078,9.211
						c-1.645,4.932-1.443,7.225-1,12.186c0.043,0.462,0.085,0.948,0.13,1.456c0.589,6.863,1.814,12.791,3.642,17.645
						c2.199,0.202,4.505,0.596,6.801,1.192c8.7,2.244,17.188,5.176,25.367,8.742c3.498-3.566,4.69-4.413,7.156-6.165
						c1.032-0.733,2.315-1.645,4.107-3c3.801-2.879,6.28-4.844,8.274-6.42C239.761,187.267,241.207,186.121,251.475,180.225z
						 M224.231,255.393c0.791-1.3,1.667-2.626,2.563-3.941c-5.088-8.567-7.755-17.404-9.687-24.964
						c-1.127-4.407-2.462-11.286-2.899-17.589c-8.045-3.505-16.4-6.387-24.957-8.599c-2.303-0.593-4.612-0.983-6.788-1.163
						c-3.462,2.149-7.251,6.361-8.354,7.635c-3.727,4.293-7.879,9.387-10.407,14.635c-1.867,3.872-1.867,3.872-2.235,6.658
						c-0.081,0.628-0.182,1.388-0.322,2.352l-0.137-0.02c-0.023,0.6-0.052,1.212-0.078,1.834c-0.098,2.127-0.196,4.332-0.065,6.149
						c0.925,12.694,5.661,25.987,12.537,36.22c3.749,2.046,7.313,2.932,11.433,3.951c0.853,0.212,1.723,0.427,2.612,0.658
						c6.58,1.707,13.136,2.814,20.016,3.393c3.296-4.732,9.524-15.13,13.696-22.1C222.381,258.467,223.439,256.695,224.231,255.393z
						 M224.462,314.641c0.176-0.53-0.069-1.045-0.424-1.289l-0.788,2.061C223.7,315.478,224.27,315.214,224.462,314.641z
						 M212.54,136.34c0.961-1.915,2.225-3.462,3.626-4.726c-19.521,7.127-36.328,19.934-48.422,36.409
						c3.186-1.944,6.938-3.544,10.691-3.804c2.075-3.368,4.573-6.609,7.247-9.394c4.814-5.01,10.681-9.612,18.462-14.481
						C206.945,138.591,209.639,137.373,212.54,136.34z M169.19,287.407c0.121-4.264,0.381-8.117,2.182-11.696
						c-7.749-11.625-11.967-25.967-12.781-37.165c-0.14-1.955-0.039-4.225,0.062-6.42c0.016-0.372,0.033-0.746,0.049-1.118
						c-2.107-0.505-3.241-1.423-4.427-2.384l-0.238-0.195c-2.365-1.912-4.453-4.814-6.029-8.267c-0.28,3.098-0.43,6.231-0.43,9.4
						c0,24.306,8.365,46.692,22.361,64.438C169.415,291.974,169.122,289.795,169.19,287.407z"/>
					<path style="fill:#CFD1CD;" d="M344.267,230.275c-0.219,6.772-1.098,12.798-2.727,18.726
						c-1.355,4.918-3.153,9.553-4.736,13.439c-1.378,3.388-3.31,6.743-5.505,9.678c-7.7,4.42-16.892,6.524-25.035,8.381
						c-1.406,0.319-2.596,0.678-3.645,0.993c-1.717,0.515-3.156,0.948-5.02,1.095c-3.967-8.851-9.14-17.368-15.149-24.896
						c-0.608-0.762-1.273-1.654-1.977-2.596c-1.316-1.766-2.733-3.664-4.209-5.309c0.906-1.782,1.753-3.407,2.573-4.984
						c5.427-10.413,8.724-16.742,11.436-35.904c1.752-0.515,3.482-1.121,5.179-1.716c1.841-0.645,3.746-1.313,5.607-1.834
						c7.396-2.062,14.999-3.772,22.402-5.407c3.392,2.753,7.209,6.443,9.841,9.521C337.504,214.377,342.442,222.279,344.267,230.275
						z"/>
					<path style="fill:#F3F5F3;" d="M329.876,160.594c-0.626-0.329-1.261-0.655-1.905-0.974c-2.068-1.017-3.857-1.538-6-1.736
						c-1.466-2.599-3.293-5.02-5.449-7.202c-4.254-4.303-9.648-7.469-14.866-10.531l-0.785-0.459
						c-3.322-1.951-6.273-3.169-9.289-3.834c-0.984-0.215-1.984-0.261-2.948-0.303c-0.632-0.029-1.237-0.062-1.808-0.134v-0.013
						c-0.026,0-0.049,0-0.075,0.003c-0.013-0.003-0.029-0.006-0.042-0.006c-1.71-2.257-3.749-4.303-5.968-5.981
						C299.981,134.995,316.941,145.972,329.876,160.594z"/>
					<path style="fill:#E1E3DF;" d="M325.876,181.358c0.329,4.99-0.609,10.482-2.785,16.329c-7.472,1.651-15.149,3.378-22.645,5.466
						c-1.931,0.541-3.872,1.221-5.749,1.879c-1.772,0.622-3.579,1.254-5.397,1.772c-12.541-13.465-20.01-19.687-35.56-26.866
						c-0.293-5.336-0.296-10.703-0.296-15.974v-0.244c0-2.632-0.131-5.329-0.251-7.938c-0.104-2.159-0.205-4.361-0.238-6.547
						c8.28-5.244,10.681-5.944,18.442-8.202c0.893-0.257,1.854-0.538,2.899-0.844l0.58-0.172c3.944-1.166,7.677-2.267,11.719-2.323
						c0.646,0.079,1.297,0.108,1.932,0.137c0.912,0.042,1.772,0.081,2.564,0.254c2.775,0.609,5.515,1.746,8.625,3.573l0.785,0.459
						c5.091,2.987,10.354,6.078,14.4,10.169c4.459,4.511,7.41,10.104,8.537,16.175c0.273,1.482,0.619,2.987,0.954,4.443
						C325.032,175.685,325.69,178.554,325.876,181.358z"/>
					<path style="fill:#CFD1CD;" d="M294.809,281.961c-0.039,3.202-0.586,4.395-1.648,6.675c-0.381,0.823-0.814,1.759-1.303,2.95
						c-1.968,4.824-4.824,8.756-8.508,13.176c-1.049,1.258-1.895,2.361-2.717,3.434c-1.986,2.589-3.569,4.647-6.635,7.003
						c-8.149,1.325-15.628,1.974-22.791,1.974c-0.049,0-0.101,0-0.149,0c-8.016-0.01-14.889-0.72-20.97-2.169
						c-8.032-6.639-18.12-20.202-20.82-30.996c3.333-4.766,9.635-15.293,13.85-22.332c1.215-2.032,2.273-3.798,3.065-5.097
						c0.736-1.216,1.537-2.431,2.378-3.668c7.941,1.3,14.335,1.971,20.52,1.971c7.941,0,15.544-1.107,25.641-3.404
						c1.352,1.531,2.685,3.319,3.926,4.98c0.716,0.961,1.391,1.866,2.022,2.658C286.206,266.05,291.017,273.845,294.809,281.961z"/>
					<path style="fill:#B5B7AE;" d="M274.076,317.498c2.56,2.622,8.212,6.941,15.53,9.194c-11.725,4.577-24.475,7.095-37.8,7.095
						c-13.84,0-27.055-2.717-39.146-7.635c0.821-0.16,1.7-0.392,2.694-0.72c7.661-2.538,8.974-3.597,14.081-8.241
						c6.287,1.508,13.371,2.251,21.618,2.261c0.053,0,0.102,0,0.153,0C258.409,319.452,265.917,318.81,274.076,317.498z"/>
					<path style="fill:#E1E3DF;" d="M251.165,163.965c0,5.358,0,10.821,0.31,16.26c-10.267,5.896-11.713,7.042-16.749,11.026
						c-1.993,1.576-4.472,3.54-8.274,6.42c-1.791,1.355-3.075,2.267-4.107,3c-2.466,1.752-3.658,2.599-7.156,6.165
						c-8.179-3.566-16.667-6.498-25.367-8.742c-2.296-0.596-4.603-0.99-6.801-1.192c-1.827-4.854-3.052-10.782-3.642-17.645
						c-0.045-0.508-0.088-0.994-0.13-1.456c-0.443-4.961-0.645-7.254,1-12.186c2.013-3.303,4.459-6.488,7.078-9.211
						c4.746-4.938,10.303-9.296,18.025-14.126c2.899-1.814,5.713-3.036,8.814-4.088c5.42,0.306,10.746,1.003,16.231,2.137
						c6.052,1.251,10.781,2.935,15.338,5.466c1.638,0.909,3.348,1.905,4.934,3.059c0.026,2.355,0.137,4.723,0.244,7.039
						c0.124,2.583,0.251,5.254,0.251,7.831V163.965z"/>
					<path style="fill:#CFD1CD;" d="M226.794,251.451c-0.896,1.315-1.772,2.642-2.563,3.941c-0.792,1.303-1.85,3.074-3.072,5.11
						c-4.172,6.97-10.4,17.367-13.696,22.1c-6.879-0.579-13.436-1.687-20.016-3.393c-0.889-0.232-1.759-0.446-2.612-0.658
						c-4.121-1.02-7.684-1.905-11.433-3.951c-6.876-10.233-11.612-23.526-12.537-36.22c-0.13-1.817-0.032-4.022,0.065-6.149
						c0.026-0.622,0.055-1.234,0.078-1.834l0.137,0.02c0.14-0.964,0.241-1.723,0.322-2.352c0.368-2.785,0.368-2.785,2.235-6.658
						c2.527-5.248,6.68-10.342,10.407-14.635c1.104-1.273,4.892-5.485,8.354-7.635c2.176,0.179,4.485,0.57,6.788,1.163
						c8.557,2.212,16.912,5.094,24.957,8.599c0.437,6.303,1.772,13.182,2.899,17.589
						C219.039,234.047,221.706,242.884,226.794,251.451z"/>
					<path style="fill:#211915;" d="M224.039,313.352c0.355,0.244,0.6,0.759,0.424,1.289c-0.192,0.573-0.762,0.838-1.212,0.772
						L224.039,313.352z"/>
					<path style="fill:#F3F5F3;" d="M216.166,131.614c-1.4,1.264-2.665,2.811-3.626,4.726c-2.902,1.033-5.596,2.251-8.397,4.003
						c-7.781,4.87-13.648,9.472-18.462,14.481c-2.674,2.785-5.172,6.026-7.247,9.394c-3.753,0.26-7.505,1.86-10.691,3.804
						C179.838,151.548,196.645,138.741,216.166,131.614z"/>
					<path style="fill:#B5B7AE;" d="M171.373,275.711c-1.801,3.579-2.062,7.433-2.182,11.696c-0.068,2.388,0.225,4.566,0.749,6.593
						c-13.996-17.745-22.361-40.132-22.361-64.438c0-3.169,0.15-6.303,0.43-9.4c1.576,3.453,3.664,6.355,6.029,8.267l0.238,0.195
						c1.186,0.961,2.319,1.879,4.427,2.384c-0.016,0.372-0.033,0.746-0.049,1.118c-0.101,2.195-0.202,4.465-0.062,6.42
						C159.406,249.744,163.623,264.086,171.373,275.711z"/>
				</g>
				<g>
				</g>
			</g>
			<g id="XMLID_3_">
				<g>
					<path style="opacity:0.3;fill:#FAFAFA;" d="M334.067,165.638c-1.726-1.096-3.578-2.161-5.54-3.181
						c9.257,16.335,20.567,33.878,19.321,52.915c0,0.326-1.306-2.606-2.607-1.629c-0.326,0-0.651,1.303-0.326,1.954
						c0.972,4.076,2.981,7.92,3.967,11.877c0.73-0.74,1.397-1.503,1.96-2.144c0.26-0.296,0.499-0.573,0.725-0.825
						c1.662-1.84,2.941-3.811,3.891-5.977C353.383,198.79,345.714,180.592,334.067,165.638z"/>
					<path style="fill:#211915;" d="M219.045,135.075c0.264-0.076,0.529-0.143,0.795-0.204l-0.085-0.303
						C219.517,134.732,219.28,134.901,219.045,135.075z"/>
					<path style="opacity:0.3;fill:#FAFAFA;" d="M297.036,211.138c8.312-4.281,17.984-6.034,26.009-10.975
						c-0.024-0.02-0.049-0.041-0.073-0.061c-7.403,1.635-15.005,3.346-22.402,5.406c-1.86,0.523-3.766,1.19-5.605,1.835
						c-1.696,0.595-3.429,1.202-5.18,1.717c-2.434,17.189-5.337,24.052-9.827,32.799c2.23-3.51,4.281-7.128,6.329-10.852
						C290.521,224.167,290.521,214.395,297.036,211.138z"/>
					<path style="opacity:0.2;fill:#FAFAFA;" d="M325.371,255.111c-2.93-1.304-6.188-0.327-9.119,1.628
						c-2.28,1.629-5.538,4.887-7.817,2.605c-2.605-3.256-6.513-4.885-9.772-2.605c-4.357,3.588-5.891,8.586-8.251,13.252
						c2.496,4.12,4.743,8.397,6.697,12.756c1.864-0.144,3.302-0.58,5.02-1.093c1.048-0.316,2.237-0.674,3.645-0.994
						c8.143-1.856,17.334-3.961,25.034-8.381c2.196-2.935,4.127-6.289,5.505-9.677c1-2.453,2.086-5.208,3.092-8.143
						C334.946,256.502,330.161,257.334,325.371,255.111z"/>
					<path style="opacity:0.2;fill:#FAFAFA;" d="M325.048,285.403c-7.167,9.772-13.683,19.219-23.453,27.36
						c-4.885,4.233-13.356,0.977-14.983,5.863c-0.949,3.082,2.937,5.128,7.007,6.39c13.226-5.818,25.024-14.299,34.706-24.77
						c1.123-2.995,2.067-5.835,2.607-8.86c0.018-0.096,0.031-0.186,0.049-0.282c-0.688-0.592-1.47-1.089-2.351-1.468
						C327,288.984,326.676,286.705,325.048,285.403z"/>
					<path style="fill:#F3F5F3;" d="M321.968,157.883c2.143,0.198,3.934,0.72,6.002,1.737c0.644,0.318,1.278,0.643,1.903,0.973
						c-2.31-2.612-4.752-5.107-7.308-7.476c-1.467-0.325-2.951-0.55-4.427-0.678C319.605,154.14,320.885,155.961,321.968,157.883z"
						/>
					<path style="fill:#F3F5F3;" d="M286.706,135.404c0.013,0,0.03,0.004,0.042,0.008c0.026-0.003,0.049-0.003,0.074-0.003v0.013
						c0.57,0.07,1.177,0.104,1.81,0.133c0.963,0.042,1.964,0.088,2.947,0.302c3.016,0.665,5.968,1.883,9.289,3.835l0.785,0.458
						c5.218,3.063,10.612,6.229,14.866,10.53c0.565,0.572,1.103,1.158,1.619,1.759c1.476,0.128,2.96,0.354,4.427,0.678
						c-11.762-10.893-26.023-19.118-41.826-23.693C282.958,131.102,284.996,133.148,286.706,135.404z"/>
					<path style="opacity:0.2;fill:#FAFAFA;" d="M276.84,263.905c-2.606-1.629-4.886-3.909-8.469-2.605
						c-10.75,3.907-23.453,12.378-33.874,3.907c-11.636,1.889-15.682,14.398-24.448,21.418
						c3.511,10.286,12.642,22.264,20.037,28.377c6.082,1.448,12.955,2.16,20.97,2.168c0.05,0,0.1,0,0.148,0
						c7.163,0,14.642-0.647,22.791-1.975c3.065-2.353,4.651-4.411,6.637-7.001c0.82-1.073,1.667-2.177,2.717-3.435
						c3.683-4.418,6.539-8.35,8.507-13.174c0.487-1.193,0.922-2.128,1.304-2.953c1.064-2.278,1.608-3.473,1.647-6.673
						c-0.81-1.737-1.672-3.457-2.574-5.16C288.017,271.699,282.755,267.385,276.84,263.905z"/>
					<path style="opacity:0.3;fill:#FAFAFA;" d="M217.842,208.024c0.21,0.097,0.421,0.197,0.632,0.294
						c0.665-0.804,1.502-1.437,2.342-2.067c10.097-7.49,24.103-8.794,30.291-20.194c0.226-0.524,0.259-1.013,0.152-1.452
						C239.218,190.866,228.254,199.332,217.842,208.024z"/>
					<path style="opacity:0.3;fill:#FAFAFA;" d="M252.41,141.434c-7.492-6.189-16.611-10.098-26.057-9.447
						c-2.555,0.197-4.634,1.226-6.597,2.581l0.085,0.303c8.405-1.924,17.016,3.197,25.078,5.586
						c2.932,0.978,5.213,4.235,8.144,2.931C253.713,143.063,252.737,141.759,252.41,141.434z"/>
					<path style="fill:#CFD1CD;" d="M274.074,317.497c-8.158,1.313-15.666,1.954-22.87,1.954c-0.05,0-0.099,0-0.152,0
						c-8.247-0.011-15.331-0.753-21.618-2.262c-5.107,4.645-6.42,5.703-14.081,8.241c-0.994,0.33-1.873,0.561-2.694,0.721
						c1.661,0.675,3.346,1.304,5.047,1.896c6.124-1.016,11.3-4.862,17.116-5.186c11.4-0.65,22.475,0.651,34.201-1.303
						c5.537-0.651,11.399,3.256,17.264,5.863c0.225,0.094,0.453,0.176,0.681,0.254c0.884-0.318,1.766-0.645,2.638-0.984
						C282.286,324.436,276.635,320.118,274.074,317.497z"/>
					<path style="fill:#E1E3DF;" d="M222.118,139.806c-0.664,0.214-1.319,0.444-1.965,0.689c10.18,2.738,19.415,8.525,25.484,16.984
						c1.664-1.213,3.393-2.35,5.193-3.4c-0.077-1.733-0.144-3.484-0.163-5.228c-1.585-1.153-3.296-2.149-4.935-3.059
						c-4.556-2.53-9.286-4.215-15.338-5.465c-5.484-1.134-10.81-1.83-16.23-2.137c-0.736,0.249-1.456,0.509-2.164,0.785
						c2.756,0.292,5.486,0.803,8.152,1.52C220.799,140.249,221.455,140.02,222.118,139.806z"/>
					<path style="opacity:0.3;fill:#FAFAFA;" d="M220.153,140.495c-19.808,7.506-31.129,28.833-35.486,48.795
						c9.148,1.14,19.646,1.917,27.517,6.871c10.313-13.586,19.744-28.693,33.454-38.682
						C239.569,149.02,230.333,143.233,220.153,140.495z"/>
					<path style="opacity:0.2;fill:#FAFAFA;" d="M218.86,315.043c1.304-1.953-0.325-5.212-2.605-6.84
						c-5.863-3.581-8.144-9.446-11.726-14.982c-2.932-5.213-9.121-4.561-14.658-5.213c-4.234-0.651-9.12-3.582-12.703-2.278
						c-4.452,1.946-3.202,8.17-2.741,13.392c0.085,0.163,0.171,0.323,0.259,0.483c9.347,10.283,20.721,18.691,33.484,24.596
						c0.84,0.013,1.59,0.006,2.335-0.053C213.829,321.881,216.615,318.787,218.86,315.043z"/>
					<path style="opacity:0.3;fill:#FAFAFA;" d="M210.066,210.161c-7.826-4.214-16.488-7.034-25.472-8.467
						c-1.898,0.009-4.65,0.057-3.843,0.325c10.423,4.886,21.823,8.142,30.292,16.611c1.302,0.978,2.606,0,2.932-1.628
						C214.301,214.07,212.346,211.138,210.066,210.161z"/>
					<path style="opacity:0.2;fill:#FAFAFA;" d="M213.65,257.065c-1.955,0-1.629-4.234-3.257-4.234
						c-7.818,0.326-14.658,6.515-18.241,14.007c-0.977,2.28-4.886,3.256-6.188,0.976c-1.304-2.279-2.932-3.257-4.886-4.234
						c-2.606-0.65-5.211,1.955-6.841,1.955c-4.67,0.211-7.54-4.138-9.605-8.909c2.184,6.477,5.185,12.642,8.768,17.976
						c3.75,2.044,7.313,2.93,11.433,3.95c0.854,0.211,1.723,0.427,2.611,0.657c6.581,1.707,13.137,2.815,20.016,3.396
						c3.296-4.734,9.525-15.132,13.697-22.101c0.5-0.834,0.971-1.621,1.41-2.355C219.845,257.033,216.626,256.867,213.65,257.065z"
						/>
					<path style="fill:#F3F5F3;" d="M172.963,161.481c-1.824,2.108-3.568,4.289-5.221,6.54c1.536-0.936,3.203-1.791,4.938-2.458
						C172.753,164.201,172.849,162.839,172.963,161.481z"/>
					<path style="fill:#F3F5F3;" d="M172.963,161.481c-0.115,1.358-0.21,2.72-0.283,4.083c1.865-0.715,3.808-1.21,5.753-1.346
						c2.074-3.367,4.573-6.61,7.247-9.393c4.814-5.01,10.681-9.612,18.462-14.483c2.801-1.752,5.495-2.969,8.398-4.002
						c0.96-1.915,2.224-3.462,3.625-4.727"/>
					<path style="opacity:0.3;fill:#FAFAFA;" d="M172.573,168.112c-3.803,4.372-5.022,11.241-4.524,16.969
						c0.651,5.211,0.651,11.726,4.885,14.331c1.221,0.764,2.585,0.168,3.891-0.949C173.286,188.713,172.245,178.375,172.573,168.112
						z"/>
					<polygon style="fill:#211915;" points="172.573,168.105 172.573,168.112 172.581,168.101 					"/>
					<path style="opacity:0.3;fill:#FAFAFA;" d="M171.371,275.71c-0.595-0.895-1.167-1.805-1.722-2.728
						c-0.467-0.777-0.915-1.566-1.352-2.362c-16.438-9.148-19.603-29.975-19.409-48.687c-0.309-0.572-0.603-1.164-0.881-1.772
						c-0.28,3.098-0.431,6.231-0.431,9.399c0,24.305,8.366,46.694,22.362,64.438c-0.524-2.023-0.818-4.203-0.75-6.592
						C169.309,283.142,169.57,279.29,171.371,275.71z"/>
				</g>
			</g>
			<path style="opacity:0.3;fill:#FAFAFA;" d="M264.771,173.995c-1.962-4.753-2.162-9.961-2.581-15.009
				c-0.207-2.471-0.493-4.936-1.03-7.358c-0.365-1.645-1.041-3.603-3.062-2.532c-1.832,0.97-3.049,3.226-2.83,5.271
				c0.221,2.102,0.77,4.162,0.979,6.275c0.2,2.036,0.319,4.079,0.496,6.114c0.391,4.479,1.103,8.761,3.174,12.799
				c0.801,1.556,2.936-0.095,3.593-0.849C264.602,177.456,265.443,175.622,264.771,173.995z"/>
			<path style="opacity:0.3;fill:#FAFAFA;" d="M351.127,233.11c-0.22-0.108-0.434-0.216-0.652-0.325
				c-0.486-0.244-1.074,0.081-1.383,0.478c-5.372,6.903-3.791,16.747-6.33,24.709c-0.524,1.648,1.354,0.919,1.849-0.049
				c0.256-0.127,0.515-0.358,0.719-0.714c1.948-3.387,3.012-7.392,3.949-11.161c0.969-3.895,1.589-7.872,2.124-11.848
				C351.447,233.865,351.517,233.306,351.127,233.11z"/>
		</g>
	</g>
</g>
<g id="DESIGNED_BY_FREEPIK">
	<g>
		<g>
			<path style="fill:#6D9147;" d="M179.552,474.293v-0.161c-0.218,0.249-0.433,0.452-0.645,0.608
				c-0.211,0.156-0.441,0.275-0.688,0.357c-0.248,0.082-0.517,0.122-0.81,0.122c-0.388,0-0.748-0.082-1.078-0.246
				c-0.33-0.164-0.616-0.399-0.857-0.704c-0.242-0.305-0.425-0.662-0.549-1.074c-0.125-0.412-0.187-0.856-0.187-1.335
				c0-1.014,0.248-1.804,0.742-2.37c0.495-0.564,1.146-0.848,1.953-0.848c0.466,0,0.86,0.08,1.181,0.239
				c0.32,0.161,0.633,0.408,0.938,0.739v-2.392c0-0.333,0.066-0.584,0.199-0.754c0.132-0.17,0.321-0.255,0.567-0.255
				c0.245,0,0.434,0.078,0.567,0.234c0.132,0.156,0.199,0.386,0.199,0.691v7.147c0,0.309-0.071,0.54-0.214,0.694
				c-0.142,0.153-0.326,0.232-0.552,0.232c-0.222,0-0.405-0.08-0.549-0.24C179.623,474.817,179.552,474.589,179.552,474.293z
				 M176.364,471.912c0,0.439,0.068,0.813,0.205,1.122c0.137,0.309,0.324,0.541,0.561,0.696c0.238,0.157,0.497,0.236,0.778,0.236
				c0.285,0,0.545-0.075,0.781-0.224c0.235-0.147,0.423-0.376,0.563-0.682c0.141-0.308,0.211-0.691,0.211-1.149
				c0-0.432-0.07-0.803-0.211-1.114c-0.14-0.31-0.33-0.547-0.57-0.712c-0.239-0.164-0.501-0.245-0.786-0.245
				c-0.297,0-0.562,0.084-0.795,0.252c-0.234,0.168-0.415,0.409-0.544,0.724C176.428,471.132,176.364,471.496,176.364,471.912z"/>
			<path style="fill:#6D9147;" d="M186.698,472.322h-3.17c0.004,0.367,0.078,0.692,0.223,0.973c0.144,0.281,0.336,0.493,0.575,0.636
				c0.24,0.143,0.504,0.213,0.793,0.213c0.193,0,0.371-0.022,0.531-0.067c0.16-0.046,0.315-0.116,0.466-0.214
				c0.15-0.097,0.289-0.201,0.415-0.311c0.126-0.111,0.291-0.263,0.493-0.452c0.083-0.071,0.202-0.106,0.357-0.106
				c0.166,0,0.3,0.046,0.403,0.137c0.102,0.092,0.155,0.22,0.155,0.386c0,0.147-0.058,0.317-0.172,0.514
				c-0.116,0.195-0.289,0.384-0.52,0.564c-0.232,0.181-0.522,0.329-0.873,0.448c-0.35,0.119-0.752,0.179-1.208,0.179
				c-1.04,0-1.85-0.298-2.427-0.891c-0.578-0.594-0.867-1.399-0.867-2.416c0-0.48,0.071-0.924,0.213-1.332
				c0.143-0.41,0.351-0.762,0.623-1.055c0.273-0.293,0.609-0.517,1.01-0.674c0.399-0.156,0.843-0.233,1.33-0.233
				c0.633,0,1.176,0.132,1.629,0.4c0.454,0.267,0.793,0.612,1.019,1.035c0.225,0.424,0.338,0.855,0.338,1.294
				c0,0.408-0.117,0.672-0.35,0.793C187.451,472.261,187.122,472.322,186.698,472.322z M183.528,471.401h2.939
				c-0.039-0.554-0.189-0.969-0.449-1.243c-0.259-0.275-0.6-0.413-1.024-0.413c-0.403,0-0.735,0.14-0.994,0.418
				C183.741,470.442,183.584,470.855,183.528,471.401z"/>
			<path style="fill:#6D9147;" d="M194.082,473.099c0,0.447-0.108,0.831-0.327,1.149c-0.217,0.318-0.539,0.561-0.964,0.725
				c-0.425,0.164-0.943,0.246-1.552,0.246c-0.582,0-1.081-0.09-1.496-0.268c-0.416-0.178-0.722-0.401-0.92-0.667
				c-0.198-0.269-0.297-0.535-0.297-0.806c0-0.178,0.063-0.33,0.19-0.456c0.126-0.126,0.287-0.19,0.481-0.19
				c0.169,0,0.3,0.042,0.391,0.125c0.091,0.083,0.178,0.2,0.261,0.35c0.167,0.29,0.366,0.504,0.597,0.647
				c0.231,0.143,0.547,0.214,0.947,0.214c0.324,0,0.59-0.072,0.798-0.217c0.208-0.146,0.311-0.31,0.311-0.496
				c0-0.285-0.107-0.492-0.323-0.623c-0.216-0.13-0.571-0.256-1.066-0.374c-0.558-0.139-1.012-0.284-1.362-0.436
				c-0.35-0.151-0.63-0.354-0.84-0.602c-0.209-0.25-0.314-0.557-0.314-0.921c0-0.324,0.097-0.631,0.29-0.92
				c0.194-0.288,0.48-0.52,0.859-0.691c0.377-0.173,0.833-0.259,1.367-0.259c0.419,0,0.797,0.043,1.131,0.131
				c0.335,0.087,0.614,0.204,0.837,0.351c0.224,0.146,0.394,0.309,0.51,0.486c0.117,0.178,0.175,0.352,0.175,0.522
				c0,0.186-0.063,0.339-0.186,0.457c-0.124,0.118-0.301,0.179-0.532,0.179c-0.166,0-0.308-0.048-0.424-0.144
				c-0.117-0.095-0.251-0.236-0.401-0.427c-0.122-0.158-0.267-0.285-0.433-0.38c-0.167-0.096-0.392-0.143-0.677-0.143
				c-0.293,0-0.536,0.061-0.73,0.188c-0.194,0.124-0.29,0.279-0.29,0.465c0,0.171,0.071,0.31,0.213,0.419
				c0.143,0.109,0.334,0.2,0.576,0.271c0.242,0.07,0.573,0.157,0.997,0.261c0.502,0.123,0.913,0.27,1.232,0.44
				c0.318,0.17,0.56,0.371,0.725,0.603C194,472.538,194.082,472.802,194.082,473.099z"/>
			<path style="fill:#6D9147;" d="M195.738,467.876c-0.226,0-0.419-0.069-0.579-0.208c-0.16-0.139-0.24-0.334-0.24-0.588
				c0-0.23,0.082-0.418,0.247-0.567c0.164-0.148,0.355-0.223,0.573-0.223c0.21,0,0.396,0.067,0.558,0.202
				c0.163,0.135,0.244,0.33,0.244,0.588c0,0.249-0.08,0.444-0.238,0.585C196.143,467.805,195.955,467.876,195.738,467.876z
				 M196.539,469.55v4.683c0,0.325-0.077,0.571-0.231,0.737c-0.155,0.166-0.35,0.249-0.588,0.249c-0.238,0-0.431-0.085-0.579-0.256
				c-0.149-0.17-0.223-0.413-0.223-0.73v-4.636c0-0.32,0.074-0.562,0.223-0.725c0.148-0.162,0.341-0.243,0.579-0.243
				c0.238,0,0.433,0.081,0.588,0.243C196.462,469.035,196.539,469.261,196.539,469.55z"/>
			<path style="fill:#6D9147;" d="M203.639,469.816v4.707c0,0.539-0.058,1.002-0.173,1.39c-0.114,0.388-0.298,0.708-0.552,0.962
				c-0.253,0.253-0.584,0.441-0.994,0.564c-0.41,0.123-0.919,0.184-1.529,0.184c-0.558,0-1.057-0.078-1.496-0.233
				c-0.439-0.157-0.777-0.359-1.015-0.605c-0.237-0.248-0.357-0.502-0.357-0.764c0-0.197,0.067-0.359,0.202-0.483
				c0.134-0.125,0.297-0.188,0.487-0.188c0.237,0,0.445,0.105,0.623,0.314c0.087,0.107,0.176,0.216,0.27,0.324
				c0.093,0.109,0.196,0.202,0.309,0.279c0.113,0.076,0.249,0.134,0.407,0.172c0.158,0.036,0.341,0.056,0.546,0.056
				c0.419,0,0.745-0.058,0.977-0.175c0.232-0.116,0.394-0.28,0.487-0.49c0.093-0.208,0.147-0.433,0.163-0.673
				c0.016-0.24,0.027-0.625,0.035-1.155c-0.249,0.349-0.537,0.614-0.864,0.796c-0.326,0.183-0.715,0.273-1.166,0.273
				c-0.542,0-1.016-0.139-1.422-0.416c-0.405-0.277-0.717-0.665-0.934-1.163c-0.218-0.499-0.326-1.074-0.326-1.728
				c0-0.486,0.066-0.927,0.198-1.317c0.133-0.393,0.322-0.723,0.567-0.992c0.245-0.269,0.528-0.472,0.849-0.608
				c0.32-0.137,0.673-0.204,1.057-0.204c0.459,0,0.857,0.088,1.193,0.263c0.336,0.178,0.649,0.453,0.938,0.829v-0.22
				c0-0.281,0.069-0.498,0.208-0.653c0.139-0.154,0.317-0.232,0.535-0.232c0.313,0,0.52,0.103,0.623,0.306
				C203.587,469.139,203.639,469.433,203.639,469.816z M198.943,471.871c0,0.656,0.143,1.153,0.43,1.489
				c0.287,0.337,0.658,0.505,1.113,0.505c0.269,0,0.523-0.072,0.762-0.217c0.24-0.145,0.435-0.362,0.586-0.653
				c0.149-0.291,0.225-0.643,0.225-1.06c0-0.66-0.145-1.175-0.436-1.543c-0.291-0.368-0.674-0.552-1.149-0.552
				c-0.463,0-0.834,0.176-1.112,0.528C199.082,470.721,198.943,471.222,198.943,471.871z"/>
			<path style="fill:#6D9147;" d="M206.214,469.525v0.196c0.285-0.376,0.597-0.652,0.934-0.828c0.339-0.176,0.727-0.265,1.167-0.265
				c0.428,0,0.81,0.094,1.146,0.279c0.336,0.186,0.588,0.449,0.754,0.789c0.108,0.198,0.177,0.412,0.208,0.642
				c0.032,0.229,0.048,0.522,0.048,0.879v3.015c0,0.325-0.075,0.571-0.223,0.737c-0.148,0.166-0.341,0.249-0.579,0.249
				c-0.242,0-0.438-0.085-0.588-0.256c-0.151-0.17-0.226-0.413-0.226-0.73v-2.7c0-0.534-0.074-0.943-0.223-1.226
				c-0.149-0.283-0.444-0.425-0.888-0.425c-0.289,0-0.552,0.086-0.79,0.258c-0.237,0.173-0.412,0.409-0.522,0.71
				c-0.079,0.241-0.119,0.692-0.119,1.352v2.03c0,0.328-0.076,0.576-0.228,0.74c-0.152,0.164-0.349,0.246-0.59,0.246
				c-0.234,0-0.426-0.085-0.576-0.256c-0.15-0.17-0.226-0.413-0.226-0.73v-4.683c0-0.31,0.067-0.54,0.202-0.692
				c0.134-0.152,0.318-0.228,0.552-0.228c0.143,0,0.271,0.033,0.387,0.102c0.114,0.067,0.207,0.168,0.276,0.302
				C206.179,469.167,206.214,469.332,206.214,469.525z"/>
			<path style="fill:#6D9147;" d="M216.073,472.322h-3.17c0.004,0.367,0.078,0.692,0.223,0.973c0.144,0.281,0.336,0.493,0.576,0.636
				c0.239,0.143,0.503,0.213,0.792,0.213c0.194,0,0.371-0.022,0.532-0.067c0.16-0.046,0.315-0.116,0.466-0.214
				c0.15-0.097,0.288-0.201,0.416-0.311c0.126-0.111,0.29-0.263,0.492-0.452c0.083-0.071,0.202-0.106,0.356-0.106
				c0.167,0,0.301,0.046,0.404,0.137c0.103,0.092,0.154,0.22,0.154,0.386c0,0.147-0.057,0.317-0.172,0.514
				c-0.115,0.195-0.288,0.384-0.52,0.564c-0.232,0.181-0.522,0.329-0.872,0.448c-0.351,0.119-0.753,0.179-1.209,0.179
				c-1.04,0-1.85-0.298-2.428-0.891c-0.577-0.594-0.866-1.399-0.866-2.416c0-0.48,0.071-0.924,0.213-1.332
				c0.143-0.41,0.351-0.762,0.624-1.055c0.272-0.293,0.609-0.517,1.009-0.674c0.399-0.156,0.843-0.233,1.33-0.233
				c0.633,0,1.175,0.132,1.628,0.4c0.454,0.267,0.793,0.612,1.019,1.035c0.225,0.424,0.338,0.855,0.338,1.294
				c0,0.408-0.117,0.672-0.351,0.793C216.826,472.261,216.497,472.322,216.073,472.322z M212.903,471.401h2.939
				c-0.04-0.554-0.189-0.969-0.448-1.243c-0.259-0.275-0.601-0.413-1.024-0.413c-0.404,0-0.736,0.14-0.995,0.418
				C213.115,470.442,212.959,470.855,212.903,471.401z"/>
			<path style="fill:#6D9147;" d="M222.679,474.293v-0.161c-0.218,0.249-0.432,0.452-0.644,0.608
				c-0.212,0.156-0.441,0.275-0.688,0.357c-0.247,0.082-0.517,0.122-0.81,0.122c-0.388,0-0.747-0.082-1.078-0.246
				c-0.33-0.164-0.616-0.399-0.858-0.704c-0.242-0.305-0.424-0.662-0.549-1.074c-0.125-0.412-0.187-0.856-0.187-1.335
				c0-1.014,0.247-1.804,0.742-2.37c0.495-0.564,1.146-0.848,1.954-0.848c0.467,0,0.861,0.08,1.181,0.239
				c0.32,0.161,0.633,0.408,0.938,0.739v-2.392c0-0.333,0.066-0.584,0.199-0.754c0.132-0.17,0.322-0.255,0.567-0.255
				s0.434,0.078,0.567,0.234c0.132,0.156,0.199,0.386,0.199,0.691v7.147c0,0.309-0.071,0.54-0.213,0.694
				c-0.143,0.153-0.326,0.232-0.552,0.232c-0.222,0-0.404-0.08-0.549-0.24C222.751,474.817,222.679,474.589,222.679,474.293z
				 M219.492,471.912c0,0.439,0.068,0.813,0.205,1.122c0.137,0.309,0.324,0.541,0.562,0.696c0.237,0.157,0.496,0.236,0.777,0.236
				c0.286,0,0.546-0.075,0.781-0.224c0.236-0.147,0.424-0.376,0.564-0.682c0.141-0.308,0.211-0.691,0.211-1.149
				c0-0.432-0.07-0.803-0.211-1.114c-0.14-0.31-0.33-0.547-0.57-0.712c-0.24-0.164-0.502-0.245-0.787-0.245
				c-0.296,0-0.562,0.084-0.795,0.252c-0.233,0.168-0.414,0.409-0.543,0.724C219.556,471.132,219.492,471.496,219.492,471.912z"/>
			<path style="fill:#6D9147;" d="M229.303,467.146v2.475c0.304-0.316,0.615-0.559,0.932-0.727c0.316-0.168,0.708-0.252,1.176-0.252
				c0.538,0,1.01,0.127,1.416,0.382c0.405,0.256,0.719,0.626,0.943,1.11c0.224,0.484,0.336,1.06,0.336,1.726
				c0,0.49-0.063,0.939-0.187,1.35c-0.125,0.409-0.306,0.765-0.543,1.065c-0.238,0.301-0.525,0.534-0.864,0.698
				c-0.339,0.164-0.711,0.246-1.119,0.246c-0.249,0-0.484-0.029-0.703-0.09c-0.22-0.059-0.407-0.137-0.562-0.234
				c-0.154-0.096-0.286-0.196-0.395-0.299c-0.109-0.104-0.252-0.258-0.43-0.464v0.161c0,0.304-0.074,0.535-0.22,0.691
				c-0.145,0.156-0.332,0.234-0.558,0.234c-0.229,0-0.413-0.078-0.549-0.234c-0.136-0.156-0.205-0.388-0.205-0.691v-7.077
				c0-0.328,0.066-0.577,0.199-0.744c0.132-0.168,0.318-0.252,0.555-0.252c0.249,0,0.441,0.079,0.576,0.239
				C229.235,466.62,229.303,466.848,229.303,467.146z M229.38,471.96c0,0.645,0.147,1.14,0.442,1.486
				c0.295,0.347,0.682,0.521,1.161,0.521c0.407,0,0.759-0.178,1.053-0.532c0.295-0.354,0.442-0.861,0.442-1.522
				c0-0.428-0.061-0.796-0.184-1.105c-0.123-0.309-0.297-0.547-0.522-0.715c-0.226-0.168-0.489-0.252-0.79-0.252
				c-0.309,0-0.584,0.084-0.825,0.252c-0.241,0.168-0.431,0.411-0.57,0.729C229.45,471.141,229.38,471.521,229.38,471.96z"/>
			<path style="fill:#6D9147;" d="M236.206,475.42l0.148-0.362l-1.995-5.021c-0.123-0.288-0.185-0.499-0.185-0.63
				c0-0.139,0.036-0.267,0.107-0.385c0.071-0.119,0.169-0.214,0.294-0.285c0.125-0.072,0.254-0.107,0.389-0.107
				c0.233,0,0.409,0.074,0.528,0.223c0.119,0.148,0.224,0.361,0.314,0.638l1.372,3.989l1.3-3.71c0.103-0.3,0.196-0.536,0.279-0.706
				c0.083-0.171,0.171-0.285,0.264-0.344c0.093-0.06,0.225-0.09,0.395-0.09c0.123,0,0.241,0.032,0.354,0.099
				c0.112,0.065,0.2,0.153,0.261,0.264c0.061,0.11,0.093,0.228,0.093,0.351c-0.017,0.074-0.042,0.182-0.078,0.32
				c-0.036,0.139-0.079,0.279-0.13,0.422l-2.113,5.532c-0.183,0.486-0.36,0.868-0.535,1.145c-0.174,0.276-0.404,0.49-0.691,0.638
				c-0.288,0.149-0.674,0.223-1.161,0.223c-0.475,0-0.831-0.051-1.068-0.153c-0.238-0.104-0.356-0.292-0.356-0.565
				c0-0.185,0.056-0.33,0.169-0.431c0.112-0.101,0.28-0.151,0.501-0.151c0.087,0,0.173,0.012,0.256,0.036
				c0.103,0.023,0.192,0.035,0.267,0.035c0.186,0,0.333-0.027,0.44-0.083c0.106-0.056,0.202-0.151,0.288-0.288
				C235.998,475.887,236.096,475.685,236.206,475.42z"/>
		</g>
		<g>
			<path style="fill:#6D9147;" d="M259.684,468.77h0.386v-0.486c0-0.51,0.063-0.911,0.192-1.211c0.127-0.3,0.347-0.517,0.654-0.653
				c0.307-0.136,0.727-0.204,1.26-0.204c0.95,0,1.421,0.229,1.421,0.696c0,0.149-0.05,0.278-0.15,0.385
				c-0.097,0.105-0.214,0.16-0.349,0.16c-0.063,0-0.174-0.012-0.329-0.037c-0.148-0.021-0.283-0.035-0.39-0.035
				c-0.293,0-0.48,0.088-0.565,0.26c-0.08,0.172-0.123,0.418-0.123,0.74v0.386h0.396c0.62,0,0.927,0.186,0.927,0.56
				c0,0.262-0.08,0.432-0.246,0.503c-0.163,0.071-0.39,0.107-0.681,0.107h-0.396v4.295c0,0.319-0.074,0.563-0.23,0.729
				c-0.15,0.171-0.346,0.254-0.589,0.254c-0.229,0-0.419-0.083-0.573-0.254c-0.153-0.167-0.229-0.41-0.229-0.729v-4.295h-0.445
				c-0.243,0-0.427-0.052-0.559-0.163c-0.131-0.107-0.197-0.25-0.197-0.424C258.868,468.962,259.141,468.77,259.684,468.77"/>
			<path style="fill:#6D9147;" d="M264.989,472.878v1.355c0,0.327-0.083,0.574-0.233,0.737c-0.155,0.166-0.35,0.246-0.586,0.246
				c-0.239,0-0.43-0.081-0.58-0.25c-0.147-0.165-0.225-0.41-0.225-0.733v-4.515c0-0.729,0.263-1.093,0.788-1.093
				c0.271,0,0.464,0.084,0.583,0.255c0.119,0.171,0.185,0.421,0.198,0.755c0.192-0.334,0.391-0.584,0.593-0.755
				c0.208-0.171,0.477-0.255,0.818-0.255c0.344,0,0.671,0.084,0.991,0.255c0.322,0.171,0.482,0.398,0.482,0.679
				c0,0.196-0.068,0.362-0.203,0.488c-0.138,0.13-0.284,0.194-0.441,0.194c-0.063,0-0.207-0.039-0.433-0.112
				c-0.228-0.071-0.431-0.108-0.602-0.108c-0.237,0-0.433,0.064-0.582,0.186c-0.151,0.128-0.268,0.311-0.352,0.554
				c-0.081,0.247-0.137,0.541-0.17,0.878C265.003,471.978,264.989,472.392,264.989,472.878"/>
			<path style="fill:#6D9147;" d="M272.439,472.32h-3.171c0.005,0.367,0.077,0.694,0.222,0.975c0.146,0.278,0.337,0.491,0.578,0.635
				c0.24,0.143,0.502,0.213,0.792,0.213c0.194,0,0.371-0.022,0.531-0.07c0.159-0.043,0.315-0.115,0.466-0.213
				c0.151-0.095,0.287-0.198,0.415-0.313c0.126-0.108,0.292-0.26,0.494-0.449c0.084-0.07,0.202-0.108,0.354-0.108
				c0.168,0,0.302,0.047,0.406,0.139c0.104,0.092,0.152,0.219,0.152,0.386c0,0.147-0.056,0.317-0.168,0.512
				c-0.117,0.198-0.289,0.386-0.522,0.566c-0.233,0.179-0.523,0.33-0.873,0.446c-0.35,0.119-0.754,0.179-1.207,0.179
				c-1.045,0-1.853-0.295-2.43-0.889c-0.577-0.595-0.869-1.401-0.869-2.417c0-0.479,0.073-0.925,0.217-1.335
				c0.141-0.411,0.349-0.76,0.625-1.054c0.272-0.295,0.605-0.519,1.007-0.675c0.399-0.155,0.842-0.233,1.33-0.233
				c0.632,0,1.176,0.134,1.629,0.403c0.453,0.265,0.797,0.61,1.018,1.034c0.226,0.426,0.339,0.855,0.339,1.296
				c0,0.405-0.118,0.669-0.352,0.791C273.191,472.26,272.863,472.32,272.439,472.32 M269.269,471.398h2.938
				c-0.039-0.553-0.186-0.969-0.446-1.241c-0.262-0.276-0.6-0.412-1.025-0.412c-0.403,0-0.735,0.137-0.995,0.418
				C269.481,470.441,269.322,470.853,269.269,471.398"/>
			<path style="fill:#6D9147;" d="M279.182,472.32h-3.171c0.004,0.367,0.078,0.694,0.222,0.975c0.145,0.278,0.337,0.491,0.575,0.635
				c0.24,0.143,0.504,0.213,0.795,0.213c0.192,0,0.371-0.022,0.528-0.07c0.162-0.043,0.316-0.115,0.469-0.213
				c0.151-0.095,0.287-0.198,0.415-0.313c0.124-0.108,0.29-0.26,0.492-0.449c0.084-0.07,0.204-0.108,0.355-0.108
				c0.168,0,0.302,0.047,0.406,0.139c0.104,0.092,0.15,0.219,0.15,0.386c0,0.147-0.055,0.317-0.171,0.512
				c-0.11,0.198-0.284,0.386-0.518,0.566c-0.232,0.179-0.525,0.33-0.872,0.446c-0.349,0.119-0.755,0.179-1.21,0.179
				c-1.041,0-1.849-0.295-2.429-0.889c-0.577-0.595-0.868-1.401-0.868-2.417c0-0.479,0.073-0.925,0.218-1.335
				c0.142-0.411,0.349-0.76,0.622-1.054c0.272-0.295,0.608-0.519,1.009-0.675c0.398-0.155,0.845-0.233,1.331-0.233
				c0.63,0,1.174,0.134,1.633,0.403c0.45,0.265,0.791,0.61,1.014,1.034c0.225,0.426,0.341,0.855,0.341,1.296
				c0,0.405-0.12,0.669-0.352,0.791C279.932,472.26,279.604,472.32,279.182,472.32 M276.011,471.398h2.939
				c-0.04-0.553-0.189-0.969-0.447-1.241c-0.263-0.276-0.601-0.412-1.026-0.412c-0.403,0-0.734,0.137-0.995,0.418
				C276.223,470.441,276.064,470.853,276.011,471.398"/>
			<path style="fill:#6D9147;" d="M282.731,469.538v0.193c0.304-0.375,0.621-0.65,0.953-0.827c0.324-0.178,0.698-0.267,1.113-0.267
				c0.497,0,0.96,0.13,1.38,0.386c0.419,0.259,0.749,0.635,0.993,1.129c0.243,0.497,0.366,1.081,0.366,1.759
				c0,0.497-0.07,0.957-0.21,1.375c-0.14,0.418-0.336,0.767-0.581,1.05c-0.246,0.282-0.534,0.502-0.868,0.654
				c-0.339,0.15-0.694,0.227-1.08,0.227c-0.461,0-0.853-0.093-1.165-0.279c-0.314-0.183-0.614-0.458-0.901-0.816v2.434
				c0,0.709-0.26,1.068-0.777,1.068c-0.307,0-0.506-0.092-0.607-0.274c-0.095-0.186-0.145-0.452-0.145-0.807v-6.996
				c0-0.31,0.066-0.537,0.2-0.692c0.134-0.149,0.319-0.227,0.553-0.227c0.23,0,0.416,0.078,0.56,0.233
				C282.661,469.019,282.731,469.241,282.731,469.538 M285.909,471.893c0-0.428-0.066-0.796-0.196-1.102
				c-0.131-0.308-0.313-0.542-0.542-0.705c-0.229-0.164-0.488-0.248-0.771-0.248c-0.445,0-0.823,0.178-1.13,0.527
				c-0.308,0.354-0.462,0.872-0.462,1.559c0,0.642,0.152,1.146,0.46,1.504c0.304,0.358,0.678,0.536,1.132,0.536
				c0.268,0,0.52-0.078,0.749-0.232c0.232-0.158,0.415-0.392,0.552-0.704C285.84,472.714,285.909,472.335,285.909,471.893"/>
			<path style="fill:#6D9147;" d="M289.169,467.871c-0.227,0-0.418-0.071-0.577-0.209c-0.162-0.139-0.242-0.333-0.242-0.585
				c0-0.23,0.082-0.419,0.248-0.569c0.163-0.147,0.354-0.222,0.571-0.222c0.212,0,0.398,0.066,0.559,0.199
				c0.162,0.137,0.244,0.334,0.244,0.592c0,0.249-0.079,0.444-0.236,0.584C289.576,467.8,289.389,467.871,289.169,467.871
				 M289.972,469.546v4.689c0,0.322-0.077,0.567-0.231,0.732c-0.156,0.169-0.351,0.25-0.588,0.25c-0.238,0-0.429-0.083-0.58-0.254
				c-0.147-0.173-0.223-0.415-0.223-0.728v-4.643c0-0.318,0.076-0.559,0.223-0.721c0.151-0.166,0.342-0.245,0.58-0.245
				c0.237,0,0.432,0.079,0.588,0.245C289.895,469.033,289.972,469.26,289.972,469.546"/>
			<path style="fill:#6D9147;" d="M295.196,474.478l-1.428-2.354l-0.88,0.83v1.291c0,0.312-0.083,0.551-0.248,0.718
				c-0.16,0.171-0.354,0.254-0.566,0.254c-0.249,0-0.447-0.081-0.588-0.25c-0.142-0.165-0.215-0.41-0.215-0.733v-6.915
				c0-0.358,0.071-0.632,0.207-0.82c0.139-0.19,0.341-0.283,0.596-0.283c0.25,0,0.445,0.086,0.594,0.257
				c0.146,0.169,0.221,0.422,0.221,0.752v3.933l1.822-1.914c0.227-0.234,0.395-0.4,0.517-0.486c0.119-0.087,0.262-0.13,0.432-0.13
				c0.203,0,0.371,0.064,0.509,0.192c0.133,0.129,0.2,0.292,0.2,0.483c0,0.237-0.221,0.556-0.659,0.951l-0.86,0.789l1.662,2.614
				c0.121,0.196,0.212,0.34,0.265,0.441c0.053,0.1,0.081,0.199,0.081,0.289c0,0.258-0.071,0.459-0.213,0.609
				c-0.14,0.147-0.327,0.221-0.554,0.221c-0.197,0-0.352-0.051-0.458-0.159C295.525,474.949,295.377,474.755,295.196,474.478"/>
			<path style="fill:#6D9147;" d="M298.719,475.217c-0.245,0-0.455-0.078-0.634-0.237c-0.178-0.156-0.268-0.379-0.268-0.666
				c0-0.241,0.086-0.449,0.256-0.622c0.172-0.174,0.38-0.262,0.63-0.262c0.248,0,0.46,0.088,0.639,0.258
				c0.175,0.172,0.264,0.383,0.264,0.626c0,0.283-0.089,0.505-0.264,0.662C299.163,475.139,298.955,475.217,298.719,475.217"/>
			<path style="fill:#6D9147;" d="M306.78,473.211c0,0.2-0.061,0.417-0.183,0.646c-0.119,0.232-0.305,0.448-0.553,0.656
				c-0.247,0.207-0.558,0.376-0.935,0.502c-0.376,0.126-0.801,0.191-1.27,0.191c-1.004,0-1.786-0.293-2.349-0.876
				c-0.56-0.584-0.841-1.368-0.841-2.35c0-0.667,0.128-1.253,0.387-1.765c0.255-0.51,0.628-0.904,1.113-1.184
				c0.487-0.28,1.072-0.419,1.746-0.419c0.422,0,0.806,0.062,1.158,0.185c0.351,0.122,0.646,0.282,0.891,0.474
				c0.242,0.197,0.429,0.402,0.556,0.62c0.13,0.221,0.192,0.426,0.192,0.617c0,0.192-0.07,0.357-0.214,0.492
				c-0.147,0.135-0.322,0.203-0.524,0.203c-0.137,0-0.248-0.036-0.338-0.105c-0.09-0.07-0.19-0.181-0.3-0.339
				c-0.198-0.299-0.403-0.525-0.622-0.674c-0.214-0.152-0.487-0.227-0.821-0.227c-0.476,0-0.864,0.187-1.158,0.561
				c-0.292,0.373-0.44,0.888-0.44,1.534c0,0.305,0.039,0.587,0.114,0.842c0.073,0.255,0.182,0.473,0.325,0.653
				c0.145,0.179,0.315,0.315,0.517,0.408c0.202,0.096,0.425,0.142,0.664,0.142c0.326,0,0.605-0.075,0.836-0.226
				c0.235-0.15,0.439-0.38,0.616-0.689c0.1-0.182,0.205-0.323,0.318-0.427c0.114-0.102,0.256-0.155,0.422-0.155
				c0.198,0,0.363,0.076,0.492,0.227C306.714,472.88,306.78,473.042,306.78,473.211"/>
			<path style="fill:#6D9147;" d="M313.774,471.923c0,0.481-0.076,0.928-0.223,1.337c-0.154,0.408-0.37,0.758-0.656,1.049
				c-0.284,0.293-0.626,0.518-1.019,0.676c-0.399,0.154-0.844,0.234-1.337,0.234c-0.49,0-0.934-0.08-1.325-0.239
				c-0.39-0.156-0.733-0.384-1.017-0.677c-0.288-0.298-0.506-0.646-0.657-1.048c-0.144-0.402-0.22-0.847-0.22-1.332
				c0-0.491,0.078-0.941,0.225-1.349c0.151-0.409,0.368-0.758,0.649-1.046c0.282-0.288,0.62-0.511,1.02-0.669
				c0.401-0.155,0.843-0.233,1.325-0.233c0.49,0,0.936,0.078,1.337,0.238c0.398,0.157,0.739,0.384,1.027,0.675
				c0.286,0.297,0.501,0.643,0.649,1.045C313.699,470.991,313.774,471.435,313.774,471.923 M312.146,471.923
				c0-0.661-0.146-1.176-0.436-1.543c-0.289-0.372-0.681-0.555-1.171-0.555c-0.317,0-0.597,0.083-0.839,0.246
				c-0.242,0.163-0.426,0.406-0.557,0.728c-0.13,0.321-0.196,0.695-0.196,1.124c0,0.425,0.063,0.792,0.193,1.108
				c0.13,0.319,0.314,0.56,0.553,0.728c0.241,0.167,0.522,0.253,0.846,0.253c0.49,0,0.882-0.185,1.171-0.557
				C312,473.086,312.146,472.573,312.146,471.923"/>
			<path style="fill:#6D9147;" d="M319.956,472.042v2.154c0,0.342-0.075,0.594-0.23,0.767c-0.156,0.171-0.357,0.256-0.611,0.256
				c-0.245,0-0.446-0.085-0.594-0.256c-0.155-0.173-0.233-0.425-0.233-0.767v-2.582c0-0.408-0.013-0.727-0.039-0.953
				c-0.028-0.221-0.105-0.409-0.227-0.552c-0.123-0.147-0.318-0.22-0.582-0.22c-0.531,0-0.879,0.182-1.048,0.551
				c-0.167,0.36-0.254,0.883-0.254,1.566v2.189c0,0.336-0.076,0.591-0.226,0.765c-0.155,0.171-0.354,0.258-0.603,0.258
				c-0.247,0-0.447-0.087-0.604-0.258c-0.157-0.174-0.235-0.429-0.235-0.765v-4.637c0-0.307,0.069-0.538,0.21-0.695
				c0.143-0.16,0.328-0.238,0.556-0.238c0.223,0,0.407,0.077,0.558,0.222c0.147,0.149,0.221,0.354,0.221,0.615v0.153
				c0.283-0.334,0.584-0.582,0.903-0.737c0.322-0.162,0.676-0.241,1.07-0.241c0.407,0,0.757,0.082,1.049,0.243
				c0.293,0.163,0.533,0.41,0.725,0.735c0.275-0.33,0.568-0.576,0.882-0.737c0.313-0.161,0.658-0.241,1.038-0.241
				c0.441,0,0.826,0.089,1.146,0.262c0.319,0.174,0.559,0.425,0.718,0.747c0.138,0.295,0.206,0.756,0.206,1.386v3.164
				c0,0.342-0.076,0.594-0.23,0.767c-0.154,0.171-0.359,0.256-0.612,0.256c-0.247,0-0.446-0.087-0.603-0.258
				c-0.155-0.174-0.234-0.429-0.234-0.765v-2.726c0-0.35-0.015-0.627-0.044-0.837c-0.029-0.21-0.11-0.388-0.238-0.529
				c-0.133-0.142-0.332-0.215-0.596-0.215c-0.214,0-0.417,0.066-0.609,0.192c-0.191,0.124-0.342,0.298-0.45,0.508
				C320.018,470.864,319.956,471.348,319.956,472.042"/>
		</g>
		<g>
			<path style="fill:#6D9147;" d="M244.516,471.53c-0.002-0.003-0.002-0.006-0.002-0.011
				C244.515,471.524,244.515,471.527,244.516,471.53z"/>
			<path style="fill:#6D9147;" d="M244.598,472.049C244.599,472.049,244.599,472.049,244.598,472.049
				c-0.029-0.147-0.053-0.294-0.072-0.438C244.544,471.756,244.568,471.903,244.598,472.049z"/>
			<path style="fill:#6D9147;" d="M245.134,473.553c-0.004-0.006-0.007-0.014-0.011-0.021
				C245.127,473.539,245.13,473.547,245.134,473.553z"/>
			<path style="fill:#6D9147;" d="M245.083,473.452c-0.014-0.027-0.027-0.056-0.041-0.083
				C245.056,473.398,245.069,473.425,245.083,473.452z"/>
			<path style="fill:#6D9147;" d="M244.748,472.628c0.079,0.25,0.175,0.493,0.286,0.724c-0.113-0.236-0.207-0.479-0.284-0.724
				C244.75,472.628,244.749,472.628,244.748,472.628z"/>
			<path style="fill:#6D9147;" d="M250.79,465.32c0.313,0,0.544,0.025,0.809,0.069l0.075-0.477c0,0-0.732-0.225-1.694-0.146
				l-0.076-0.26c0.299-0.063,0.523-0.328,0.523-0.646c0-0.364-0.296-0.659-0.661-0.659c-0.364,0-0.66,0.295-0.66,0.659
				c0,0.317,0.224,0.583,0.523,0.646l0.083,0.29c-1.021,0.141-1.835,0.539-1.835,0.539l0.144,0.44
				c0.618-0.206,1.154-0.331,1.64-0.384C250.139,465.342,250.497,465.32,250.79,465.32z"/>
			<path style="fill:#6D9147;" d="M245.122,467.731l0.003-0.005c0.024-0.031,0.047-0.061,0.071-0.089l-0.195-0.141l-0.305-0.223
				c-0.017,0.023-0.497,0.465-0.876,1.279c-0.016-0.025-0.035-0.051-0.056-0.074c-0.114-0.124-0.272-0.188-0.474-0.184
				c-0.002,0-0.006,0-0.009,0c-0.124,0-0.21-0.042-0.267-0.093c0.056-0.07,0.089-0.159,0.089-0.258c0-0.23-0.188-0.418-0.418-0.418
				c-0.23,0-0.418,0.188-0.418,0.418c0,0.231,0.188,0.418,0.418,0.418c0.037,0,0.071-0.006,0.105-0.013
				c0.102,0.114,0.266,0.214,0.505,0.209c0.123-0.001,0.213,0.03,0.273,0.097c0.069,0.076,0.093,0.185,0.1,0.267
				c0,0.001,0,0.003-0.002,0.003c-0.272,0.743-0.194,1.669-0.194,1.669l0.661,0.026c0.014-0.337,0.062-0.927,0.232-1.395
				C244.693,468.322,245.105,467.756,245.122,467.731z"/>
			<path style="fill:#6D9147;" d="M256.539,465.873c-0.23,0-0.418,0.187-0.418,0.418c0,0.035,0.005,0.07,0.015,0.103
				c-0.115,0.104-0.215,0.268-0.211,0.507c0.002,0.123-0.03,0.213-0.097,0.273c-0.053,0.048-0.119,0.072-0.184,0.088
				c-0.492-0.688-1.098-1.109-1.098-1.109l-0.474,0.509c0.357,0.326,0.724,0.734,1.08,1.244c0.246,0.352,0.499,0.806,0.71,1.259
				l0.64-0.304c0,0-0.292-0.723-0.703-1.37c0.071-0.024,0.144-0.063,0.207-0.12c0.125-0.113,0.186-0.272,0.183-0.474
				c-0.001-0.13,0.042-0.218,0.093-0.275c0.071,0.054,0.16,0.089,0.258,0.089c0.231,0,0.419-0.188,0.419-0.418
				C256.958,466.06,256.771,465.873,256.539,465.873z"/>
			<path style="fill:#6D9147;" d="M254.878,471.624c-0.881,0.429-2.33,0.996-4.238,1.262c-0.748,0.104-1.475,0.143-2.142,0.143
				c-0.869,0-1.637-0.064-2.227-0.14c-0.672-0.084-1.198-0.188-1.52-0.261c0.077,0.245,0.171,0.487,0.284,0.724
				c0.002,0.007,0.005,0.013,0.008,0.018c0.014,0.027,0.027,0.056,0.041,0.083c0.013,0.028,0.027,0.055,0.04,0.08
				c0.004,0.007,0.007,0.015,0.011,0.021c0.189,0.357,0.417,0.685,0.675,0.968c0.9,0.984,1.817,1.141,1.826,1.142l0.014,0.002
				l0.013,0.005c0.008,0.003,0.821,0.266,2.058,0.266c1.215,0,2.409-0.246,3.546-0.729c0.842-0.431,1.639-1.085,2.033-1.669
				c0.306-0.452,0.525-0.933,0.656-1.434c0.069-0.267,0.124-0.692,0.092-1.141C255.801,471.128,255.408,471.366,254.878,471.624z"/>
			<path style="fill:#6D9147;" d="M245.405,467.94c-0.025,0.037-0.408,0.578-0.71,1.408c-0.226,0.622-0.216,1.527-0.216,1.537v0.002
				c0,0.213,0.012,0.423,0.035,0.632c0,0.005,0,0.008,0.002,0.011c0.002,0.027,0.007,0.053,0.009,0.08
				c0.019,0.145,0.043,0.291,0.074,0.438c0.438,0.111,3.049,0.721,5.968,0.314c1.829-0.254,3.218-0.795,4.061-1.204
				c0.701-0.34,1.151-0.647,1.325-0.773c-0.173-0.643-0.651-1.65-1.09-2.279c-1.253-1.791-2.604-2.25-3.298-2.364
				c-0.265-0.044-0.477-0.068-0.777-0.068c-0.28,0-0.626,0.022-1.09,0.071c-0.464,0.048-0.982,0.17-1.583,0.372
				c-0.842,0.282-1.604,0.725-2.204,1.28l-0.021,0.018C245.804,467.497,245.618,467.669,245.405,467.94z M253.073,467.523
				c0.601,0,1.09,0.488,1.09,1.09c0,0.601-0.489,1.09-1.09,1.09c-0.601,0-1.089-0.489-1.089-1.09
				C251.984,468.012,252.473,467.523,253.073,467.523z M247.922,467.48c0.973,0,1.76,0.788,1.76,1.761
				c0,0.973-0.788,1.759-1.76,1.759c-0.972,0-1.76-0.786-1.76-1.759C246.162,468.269,246.951,467.48,247.922,467.48z"/>
		</g>
	</g>
</g>
</svg>
